<mxfile host="65bd71144e">
    <diagram id="eYnAASnBNCQlq_VnzU4O" name="Página-1">
        <mxGraphModel dx="816" dy="424" grid="1" gridSize="10" guides="1" tooltips="1" connect="1" arrows="1" fold="1" page="1" pageScale="1" pageWidth="827" pageHeight="1169" math="0" shadow="0">
            <root>
                <mxCell id="0"/>
                <mxCell id="1" parent="0"/>
                <mxCell id="2" value="Catedral DeSantiago: Edificio " style="swimlane;" vertex="1" parent="1">
                    <mxGeometry x="240" y="130" width="370" height="205" as="geometry"/>
                </mxCell>
                <mxCell id="3" value="Nombre = “Catedral de Santiago de Compostela”&lt;br/&gt;Culto = Católico&lt;br/&gt;Lug ar = “San tiag o de Compostela, G alicia, Españ a”&lt;br/&gt;Fecha inicio construcción = 1075&lt;br/&gt;Fecha fin constru cción = 112 2&lt;br/&gt;Fecha primera co nsa gración = 1128&lt;br/&gt;Fecha inicio segu nda etapa co nstrucción = 1168&lt;br/&gt;Fecha seg unda consagración = 3 de abril de 121 1&lt;br/&gt;Fecha declaración BIC = 1896&lt;br/&gt;Material = Gran ito&lt;br/&gt;Esti lo = Román ico, Gótico, Bar roco, Platere sco, Neoclásico" style="text;html=1;align=center;verticalAlign=middle;resizable=0;points=[];autosize=1;strokeColor=none;fillColor=none;" vertex="1" parent="2">
                    <mxGeometry x="10" y="35" width="350" height="170" as="geometry"/>
                </mxCell>
            </root>
        </mxGraphModel>
    </diagram>
</mxfile>